<svg xmlns="http://www.w3.org/2000/svg" viewBox="0 0 20 20"><path d="M16.251 16H3.749a.248.248 0 01-.249-.249V6.908l4.996 4.056.034.026c.201.15.739.489 1.492.51a2.656 2.656 0 001.482-.536L16.5 6.908v8.843a.248.248 0 01-.249.249zM3.5 4.249c0-.138.111-.249.249-.249h12.502c.138 0 .249.111.249.249v.728L10.57 9.79c-.002.002-.269.201-.548.21a1.173 1.173 0 01-.595-.212L3.5 4.977v-.728zM16.251 2.5H3.749A1.75 1.75 0 002 4.249v11.502A1.75 1.75 0 003.749 17.5h12.502A1.75 1.75 0 0018 15.751V4.249A1.75 1.75 0 0016.251 2.5z" fill="#303038" fill-rule="nonzero"/></svg>