<svg xmlns="http://www.w3.org/2000/svg" viewBox="0 0 20 20"><path d="M16.5 16.251a.248.248 0 01-.249.249H3.748a.248.248 0 01-.248-.249V8.749c0-.138.111-.249.248-.249H6.75v.251A1.75 1.75 0 008.498 10.5h3.003a1.75 1.75 0 001.749-1.749V8.5h3.001c.138 0 .249.111.249.249v7.502zM5.415 3.5h9.17c.1 0 .191.062.211.101L15.931 7H12.5a.75.75 0 00-.75.75v1.001a.248.248 0 01-.249.249H8.498a.248.248 0 01-.248-.249V7.75A.75.75 0 007.5 7H4.068l1.117-3.348a.253.253 0 01.23-.152zm12.511 4.772c-.004-.015 0-.031-.006-.046l-1.722-5.152A1.744 1.744 0 0014.585 2h-9.17c-.707 0-1.341.422-1.633 1.126l-1.702 5.1c-.006.015-.002.031-.006.046A1.754 1.754 0 002 8.749v7.502A1.75 1.75 0 003.748 18h12.503A1.75 1.75 0 0018 16.251V8.749c0-.166-.031-.324-.074-.477z" fill="#303038" fill-rule="nonzero"/></svg>