<svg xmlns="http://www.w3.org/2000/svg" viewBox="0 0 20 20"><path d="M16.382 10.23L3.928 16.713a.274.274 0 01-.29-.002.27.27 0 01-.126-.156l1.799-5.617 5.59-.732c.237-.032.237-.375 0-.407l-5.59-.732-1.8-5.617a.28.28 0 01.128-.157c.054-.031.163-.073.312.01l12.416 6.464c.116.07.133.177.133.235 0 .06-.018.17-.118.228m.717-1.772c-.008-.005-.016-.01-.024-.013L4.668 1.987a1.766 1.766 0 00-1.783.01A1.757 1.757 0 002 3.532a.73.73 0 00.036.228l2 6.242-2 6.243a.73.73 0 00-.036.228c0 .639.33 1.213.885 1.535.284.165.597.247.906.247.297 0 .59-.075.854-.224l12.454-6.484c.564-.32.9-.897.9-1.545 0-.647-.336-1.224-.9-1.544" fill="#303038" fill-rule="nonzero"/></svg>