<svg xmlns="http://www.w3.org/2000/svg" viewBox="0 0 20 20"><g fill="#303038" fill-rule="nonzero"><path d="M10.95 1.5a2 2 0 011.386.559l4.55 4.378c.185.177.331.385.435.613l.055.055-.027.01a2 2 0 01.151.763v8.872c0 .965-.785 1.75-1.75 1.75H4.25c-.965 0-1.75-.785-1.75-1.75V3.25c0-.965.785-1.75 1.75-1.75zm.103 1.5H4.25a.25.25 0 00-.25.25v13.5c0 .138.112.25.25.25h11.5a.25.25 0 00.25-.25V7.515l-4.968-4.467.021-.048z"/><path stroke="#303038" stroke-width=".2" d="M11.952 2v5c0 .193.131.355.306.392l.077.008h4.467v1.2h-4.467c-.8 0-1.457-.639-1.527-1.454L10.802 7V2h1.15z"/></g></svg>